<svg xmlns="http://www.w3.org/2000/svg" width="32" height="32" viewBox="0 0 8.467 8.467"><g transform="translate(-35.104 -162.361)"><path fill="#bddbff" fill-opacity=".98" stroke-width="1.089" d="m 373.57255,40.334263 c -0.7312,0.05279 -1.46159,0.384177 -2.01563,0.9375 l -9.2207,9.220703 c -0.90948,0.909485 -1.915,2.343411 -2.45898,3.509766 l -0.62891,1.351563 c -0.15067,0.322716 -0.25668,0.628183 -0.28125,0.980468 -0.0246,0.352285 0.0589,0.829642 0.41992,1.169922 0.36099,0.34028 0.84116,0.396778 1.19141,0.351563 0.35025,-0.04522 0.65131,-0.170447 0.96484,-0.339844 l 1.2168,-0.65625 c 1.10517,-0.597112 2.51797,-1.648832 3.40625,-2.537109 l 9.2207,-9.220704 c 1.10732,-1.107316 1.32291,-2.921228 0.20703,-4.037109 -0.55794,-0.55794 -1.29029,-0.78326 -2.02148,-0.730469 z" color="#000" style="line-height:normal;font-variant-ligatures:normal;font-variant-position:normal;font-variant-caps:normal;font-variant-numeric:normal;font-variant-alternates:normal;font-feature-settings:normal;text-indent:0;text-align:start;text-decoration-line:none;text-decoration-style:solid;text-decoration-color:#000;text-transform:none;text-orientation:mixed;shape-padding:0;isolation:auto;mix-blend-mode:normal" font-family="sans-serif" font-weight="400" overflow="visible" transform="matrix(.24304 0 0 .24304 -48.178 152.888)" white-space="normal"/><path fill="#57a4ff" fill-opacity=".98" d="m 42.310573,170.69793 h -6.31216 c -0.43762,0 -0.79375,-0.35613 -0.79375,-0.79375 v -6.31242 c 0,-0.43762 0.35613,-0.79375 0.79375,-0.79375 h 4.28995 c 0.14632,0 0.26459,0.11853 0.26459,0.26458 0,0.14605 -0.11827,0.26458 -0.26459,0.26458 h -4.28995 c -0.14579,0 -0.26458,0.1188 -0.26458,0.26459 v 6.31215 c 0,0.14579 0.11879,0.26459 0.26458,0.26459 h 6.31216 c 0.14605,0 0.26459,-0.1188 0.26459,-0.26459 v -4.28994 c 0,-0.14605 0.11827,-0.26459 0.26458,-0.26459 0.14631,0 0.26458,0.11854 0.26458,0.26459 v 4.29021 c 0,0.43762 -0.35613,0.79375 -0.79375,0.79375 z m -0.62838,-2.22092 c -5.3e-4,0 -7.9e-4,0 -10e-4,0 l -5.10249,-0.0236 c -0.14632,-5.2e-4 -0.26406,-0.11959 -0.26353,-0.26564 5.3e-4,-0.14577 0.11907,-0.26351 0.26459,-0.26351 2.6e-4,0 7.9e-4,0 10e-4,0 l 5.10275,0.0236 c 0.14605,5.3e-4 0.26405,0.11959 0.26326,0.26563 -5.3e-4,0.14605 -0.1188,0.26352 -0.26432,0.26352 z m -2.44237,-1.34433 c -0.12462,0 -0.20664,-0.0529 -0.25321,-0.0968 -0.0786,-0.0741 -0.18759,-0.24633 -0.037,-0.56912 l 0.16669,-0.35719 c 0.13653,-0.2921 0.42228,-0.70009 0.65061,-0.92869 l 2.31669,-2.31695 c 8e-4,-5.3e-4 0.001,-0.001 0.002,-0.002 5.3e-4,-5.3e-4 10e-4,-0.001 0.002,-0.002 l 0.11933,-0.11933 c 0.30903,-0.3093 0.78819,-0.33391 1.06786,-0.0548 0,0 0,0 0,0 0.2794,0.27913 0.25479,0.7583 -0.0548,1.06786 0,0 -0.14182,0.14605 -0.15505,0.15504 l -2.28467,2.28468 c -0.2249,0.2249 -0.62045,0.51964 -0.90091,0.67151 l -0.32226,0.17383 c -0.127,0.0685 -0.23178,0.0931 -0.31671,0.0931 z m 3.03292,-3.7092 -2.13148,2.13175 c -0.18495,0.18521 -0.43498,0.5416 -0.54531,0.7784 l -0.0521,0.11139 0.0836,-0.045 c 0.23416,-0.12673 0.59081,-0.39211 0.7784,-0.57996 l 2.13175,-2.13175 z m 0.38338,-0.36512 0.24659,0.24659 c 0.0529,-0.0942 0.0468,-0.195 -0.002,-0.24421 -0.0542,-0.054 -0.15531,-0.0516 -0.24421,-0.002 z"/></g></svg>