<svg id="SvgjsSvg1001" width="288" height="288" xmlns="http://www.w3.org/2000/svg" version="1.1" xmlns:xlink="http://www.w3.org/1999/xlink" xmlns:svgjs="http://svgjs.com/svgjs"><defs id="SvgjsDefs1002"></defs><g id="SvgjsG1008" transform="matrix(0.916700005531311,0,0,0.916700005531311,11.835553169250488,11.99500560760498)"><svg xmlns="http://www.w3.org/2000/svg" width="288" height="288" viewBox="0 0 32 32"><path style="line-height:normal;text-indent:0;text-align:start;text-decoration-line:none;text-decoration-style:solid;text-decoration-color:#000;text-transform:none;block-progression:tb;isolation:auto;mix-blend-mode:normal" d="m 19.53413,1026.4939 c 0.14928,0 0.29857,0.046 0.43945,0.1367 0.27985,0.1795 0.47392,0.536 0.47656,0.9356 l 0,0.01 c -0.001,0.1301 0.0487,0.2555 0.13867,0.3496 0.0337,0.036 0.0725,0.067 0.11524,0.092 l 0.002,0 c 0.0285,0.017 0.0586,0.03 0.0898,0.041 l 0.002,0 c 0.0305,0.01 0.0619,0.017 0.0937,0.021 l 0.004,0 c 0.0155,0 0.0312,0 0.0469,0 l 0.002,0 c 0.0163,10e-5 0.0326,-5e-4 0.0488,0 0.017,0 0.034,0 0.0508,-0.01 0.0165,0 0.0328,-0.01 0.0488,-0.012 l 0.0156,-0.01 c 0.01,0 0.0196,-0.01 0.0293,-0.01 l 0.002,0 c 0.0153,-0.01 0.0303,-0.012 0.0449,-0.02 0.0298,-0.016 0.058,-0.035 0.084,-0.057 l 0.002,0 c 0.0115,-0.01 0.0226,-0.02 0.0332,-0.031 l 0.002,0 c 0.0233,-0.023 0.0442,-0.049 0.0625,-0.076 0.009,-0.014 0.0177,-0.028 0.0254,-0.043 0.0393,-0.074 0.0595,-0.1565 0.0586,-0.2402 l 0,-0.01 c 6.4e-4,-0.098 0.011,-0.1945 0.0332,-0.2852 0.0686,-0.2796 0.23204,-0.5149 0.44336,-0.6504 0.28176,-0.1807 0.59714,-0.1807 0.8789,0 0.27987,0.1795 0.47585,0.536 0.47852,0.9356 l 0,0.01 c -0.001,0.1301 0.0487,0.2555 0.13867,0.3496 0.0337,0.036 0.0725,0.067 0.11524,0.092 l 0.002,0 c 0.0285,0.017 0.0586,0.03 0.0898,0.041 l 0.002,0 c 0.0305,0.01 0.0619,0.017 0.0937,0.022 l 0.004,0 c 0.0156,0 0.0312,0 0.0469,0 0.0341,2e-4 0.0681,0 0.10156,-0.01 0.0165,0 0.0328,-0.01 0.0488,-0.012 l 0.0156,-0.01 c 0.01,0 0.0196,-0.01 0.0293,-0.01 l 0.002,0 c 0.0457,-0.018 0.0885,-0.043 0.12696,-0.074 l 0.002,0 0.002,0 c 0.0115,-0.01 0.0226,-0.02 0.0332,-0.031 l 0.002,0 c 0.0952,-0.095 0.14802,-0.2248 0.14648,-0.3594 0,0 10e-6,-0.01 0,-0.01 0.003,-0.3996 0.1967,-0.7561 0.47657,-0.9356 0.28176,-0.1807 0.59714,-0.1807 0.8789,0 0.278,0.1783 0.47331,0.5315 0.47852,0.9278 -4e-5,0.01 -0.002,0.01 -0.002,0.016 -0.004,0.2569 0.18806,0.4748 0.44336,0.5039 l 0.004,0 c 0.0155,0 0.0312,0 0.0469,0 0.0621,3e-4 0.12369,-0.011 0.18165,-0.033 l 0.0117,0 0.004,0 0.008,0 c 0.0126,-0.01 0.0249,-0.01 0.0371,-0.016 0.0147,-0.01 0.0291,-0.016 0.043,-0.025 0.0142,-0.01 0.0279,-0.02 0.041,-0.031 0.11767,-0.096 0.18523,-0.2406 0.18359,-0.3926 0,0 -0.002,-0.01 -0.002,-0.016 0.005,-0.3963 0.20051,-0.7494 0.47851,-0.9277 0.28177,-0.1808 0.59715,-0.1808 0.87891,0 0.27563,0.1767 0.46629,0.5257 0.47461,0.9179 -0.005,1.2198 -0.49184,2.3928 -1.37305,3.3184 l -7.58984,0 c -0.88121,-0.9256 -1.3679,-2.0986 -1.37305,-3.3184 0.008,-0.3922 0.20093,-0.7412 0.47656,-0.9179 0.14089,-0.09 0.29017,-0.1368 0.43946,-0.1368 z m 1.02734,5.3731 6.50586,0 0,0.8906 -6.50586,0 z m -0.23047,1.8906 6.91016,0 c 6.62478,5.538 8.33203,10.5529 8.33203,14.2871 l 0,0.4336 c 0,1.573 -1.11358,3.0593 -3.07422,4.1836 -1.96064,1.1243 -4.72845,1.8398 -7.80273,1.8398 l -1.82032,0 c -3.07428,0 -5.84209,-0.7155 -7.80273,-1.8398 -1.96064,-1.1243 -3.07227,-2.6106 -3.07227,-4.1836 l 0,-0.4336 c 0,-3.7342 1.70533,-8.7491 8.33008,-14.2871 z m 3.72461,4.7461 c -3.58936,0 -6.48242,2.9193 -6.48242,6.498 0,3.5798 2.89305,6.5 6.48242,6.5 3.58852,0 6.51758,-2.9166 6.51758,-6.5 2.1e-4,-0.067 -0.0131,-0.1335 -0.0391,-0.1953 l -0.002,0 c -0.1113,-3.486 -2.95812,-6.3008 -6.47656,-6.3008 z m 0,1 c 3.04842,0 5.51758,2.4591 5.51758,5.498 0,3.0402 -2.46917,5.5 -5.51758,5.5 -3.04941,0 -5.48242,-2.4562 -5.48242,-5.5 0,-3.0425 2.43302,-5.498 5.48242,-5.498 z m -2.44141,2.0273 0,0.01 -0.0215,0 0,1 1.02734,0 c 0.93429,0 1.40483,0.4414 1.57422,0.9902 l -2.58008,0 0,1 2.58008,0 c -0.16984,0.5481 -0.64087,0.9903 -1.57422,0.9903 l -0.35546,0 -0.004,0 -0.004,0 -0.66406,0 0,0.6816 -0.0293,0.029 0.0293,0.029 0,0.2598 0.26563,0 3.08203,3.0117 0.69922,-0.7148 -2.41407,-2.3575 c 1.09685,-0.2207 1.80073,-1.0332 1.99414,-1.9297 l 1.36524,0 0,-1 -1.36524,0 c -0.0773,-0.3595 -0.24411,-0.7 -0.47851,-1 l 1.84375,0 0,-1 z" color="#000" font-family="sans-serif" font-weight="400" overflow="visible" transform="translate(-8 -1024.495)" fill="#ffffff" class="color000 svgShape"></path></svg></g></svg>