<svg xmlns="http://www.w3.org/2000/svg" viewBox="0 0 64 64"><g data-name="Save"><path fill="#546e7a" d="M46.548,52.756h-29.1a1.5,1.5,0,0,1-1.5-1.5V26.128a1.5,1.5,0,0,1,3,0V49.756h27.6a1.5,1.5,0,0,1,0,3Z"/><path fill="#29b6f6" d="M33.331,42.446a1.5,1.5,0,0,1-1.5-1.5v-28.2a1.5,1.5,0,0,1,3,0v28.2A1.5,1.5,0,0,1,33.331,42.446Z"/><path fill="#29b6f6" d="M33.331 42.446a1.5 1.5 0 0 1-1.061-.439l-7.492-7.491A1.5 1.5 0 0 1 26.9 32.4l7.492 7.491a1.5 1.5 0 0 1-1.06 2.56zM38.388 37.389a1.5 1.5 0 0 1-1.06-2.561L39.762 32.4a1.5 1.5 0 1 1 2.121 2.121l-2.434 2.433A1.5 1.5 0 0 1 38.388 37.389z"/></g></svg>